<?xml version="1.0" encoding="utf-8" standalone="no"?>
<!DOCTYPE svg PUBLIC "-//W3C//DTD SVG 1.1//EN"
  "http://www.w3.org/Graphics/SVG/1.1/DTD/svg11.dtd">
<svg xmlns:xlink="http://www.w3.org/1999/xlink" width="518.4pt" height="244.8pt" viewBox="0 0 518.4 244.8" xmlns="http://www.w3.org/2000/svg" version="1.1">
 <metadata>
  <rdf:RDF xmlns:dc="http://purl.org/dc/elements/1.1/" xmlns:cc="http://creativecommons.org/ns#" xmlns:rdf="http://www.w3.org/1999/02/22-rdf-syntax-ns#">
   <cc:Work>
    <dc:type rdf:resource="http://purl.org/dc/dcmitype/StillImage"/>
    <dc:format>image/svg+xml</dc:format>
   </cc:Work>
  </rdf:RDF>
 </metadata>
 <defs>
  <style type="text/css">*{stroke-linejoin: round; stroke-linecap: butt}</style>
 </defs>
 <g id="figure_1">
  <g id="patch_1">
   <path d="M 0 244.8 
L 518.4 244.8 
L 518.4 0 
L 0 0 
z
" style="fill: #fcfcfb"/>
  </g>
  <g id="axes_1">
   <g id="patch_2">
    <path d="M 47.37 206.34 
L 507.6 206.34 
L 507.6 67.024 
L 47.37 67.024 
z
" style="fill: #fcfcfb"/>
   </g>
   <g id="matplotlib.axis_1">
    <g id="xtick_1">
     <g id="line2d_1"/>
     <g id="text_1">
      <text style="font-size: 10px; font-family: 'DejaVu Sans', 'Bitstream Vera Sans', 'Computer Modern Sans Serif', 'Lucida Grande', 'Verdana', 'Geneva', 'Lucid', 'Arial', 'Helvetica', 'Avant Garde', sans-serif; text-anchor: middle; fill: #52514e" x="99.756271" y="217.438437" transform="rotate(-0 99.756271 217.438437)">1960</text>
     </g>
    </g>
    <g id="xtick_2">
     <g id="line2d_2"/>
     <g id="text_2">
      <text style="font-size: 10px; font-family: 'DejaVu Sans', 'Bitstream Vera Sans', 'Computer Modern Sans Serif', 'Lucida Grande', 'Verdana', 'Geneva', 'Lucid', 'Arial', 'Helvetica', 'Avant Garde', sans-serif; text-anchor: middle; fill: #52514e" x="158.027986" y="217.438437" transform="rotate(-0 158.027986 217.438437)">1970</text>
     </g>
    </g>
    <g id="xtick_3">
     <g id="line2d_3"/>
     <g id="text_3">
      <text style="font-size: 10px; font-family: 'DejaVu Sans', 'Bitstream Vera Sans', 'Computer Modern Sans Serif', 'Lucida Grande', 'Verdana', 'Geneva', 'Lucid', 'Arial', 'Helvetica', 'Avant Garde', sans-serif; text-anchor: middle; fill: #52514e" x="216.2997" y="217.438437" transform="rotate(-0 216.2997 217.438437)">1980</text>
     </g>
    </g>
    <g id="xtick_4">
     <g id="line2d_4"/>
     <g id="text_4">
      <text style="font-size: 10px; font-family: 'DejaVu Sans', 'Bitstream Vera Sans', 'Computer Modern Sans Serif', 'Lucida Grande', 'Verdana', 'Geneva', 'Lucid', 'Arial', 'Helvetica', 'Avant Garde', sans-serif; text-anchor: middle; fill: #52514e" x="274.571414" y="217.438437" transform="rotate(-0 274.571414 217.438437)">1990</text>
     </g>
    </g>
    <g id="xtick_5">
     <g id="line2d_5"/>
     <g id="text_5">
      <text style="font-size: 10px; font-family: 'DejaVu Sans', 'Bitstream Vera Sans', 'Computer Modern Sans Serif', 'Lucida Grande', 'Verdana', 'Geneva', 'Lucid', 'Arial', 'Helvetica', 'Avant Garde', sans-serif; text-anchor: middle; fill: #52514e" x="332.843129" y="217.438437" transform="rotate(-0 332.843129 217.438437)">2000</text>
     </g>
    </g>
    <g id="xtick_6">
     <g id="line2d_6"/>
     <g id="text_6">
      <text style="font-size: 10px; font-family: 'DejaVu Sans', 'Bitstream Vera Sans', 'Computer Modern Sans Serif', 'Lucida Grande', 'Verdana', 'Geneva', 'Lucid', 'Arial', 'Helvetica', 'Avant Garde', sans-serif; text-anchor: middle; fill: #52514e" x="391.114843" y="217.438437" transform="rotate(-0 391.114843 217.438437)">2010</text>
     </g>
    </g>
    <g id="xtick_7">
     <g id="line2d_7"/>
     <g id="text_7">
      <text style="font-size: 10px; font-family: 'DejaVu Sans', 'Bitstream Vera Sans', 'Computer Modern Sans Serif', 'Lucida Grande', 'Verdana', 'Geneva', 'Lucid', 'Arial', 'Helvetica', 'Avant Garde', sans-serif; text-anchor: middle; fill: #52514e" x="449.386557" y="217.438437" transform="rotate(-0 449.386557 217.438437)">2020</text>
     </g>
    </g>
    <g id="text_8">
     <text style="font-size: 10px; font-family: 'DejaVu Sans', 'Bitstream Vera Sans', 'Computer Modern Sans Serif', 'Lucida Grande', 'Verdana', 'Geneva', 'Lucid', 'Arial', 'Helvetica', 'Avant Garde', sans-serif; text-anchor: middle; fill: #52514e" x="277.485" y="231.116562" transform="rotate(-0 277.485 231.116562)">Publication year</text>
    </g>
   </g>
   <g id="matplotlib.axis_2">
    <g id="ytick_1">
     <g id="line2d_8">
      <path d="M 47.37 206.34 
L 507.6 206.34 
" clip-path="url(#pa4f0596d1d)" style="fill: none; stroke: #e6e5e0; stroke-width: 0.6; stroke-linecap: square"/>
     </g>
     <g id="line2d_9"/>
     <g id="text_9">
      <text style="font-size: 10px; font-family: 'DejaVu Sans', 'Bitstream Vera Sans', 'Computer Modern Sans Serif', 'Lucida Grande', 'Verdana', 'Geneva', 'Lucid', 'Arial', 'Helvetica', 'Avant Garde', sans-serif; text-anchor: end; fill: #0b0b0b" x="43.87" y="210.139219" transform="rotate(-0 43.87 210.139219)">0</text>
     </g>
    </g>
    <g id="ytick_2">
     <g id="line2d_10">
      <path d="M 47.37 180.824249 
L 507.6 180.824249 
" clip-path="url(#pa4f0596d1d)" style="fill: none; stroke: #e6e5e0; stroke-width: 0.6; stroke-linecap: square"/>
     </g>
     <g id="line2d_11"/>
     <g id="text_10">
      <text style="font-size: 10px; font-family: 'DejaVu Sans', 'Bitstream Vera Sans', 'Computer Modern Sans Serif', 'Lucida Grande', 'Verdana', 'Geneva', 'Lucid', 'Arial', 'Helvetica', 'Avant Garde', sans-serif; text-anchor: end; fill: #0b0b0b" x="43.87" y="184.623468" transform="rotate(-0 43.87 184.623468)">20</text>
     </g>
    </g>
    <g id="ytick_3">
     <g id="line2d_12">
      <path d="M 47.37 155.308498 
L 507.6 155.308498 
" clip-path="url(#pa4f0596d1d)" style="fill: none; stroke: #e6e5e0; stroke-width: 0.6; stroke-linecap: square"/>
     </g>
     <g id="line2d_13"/>
     <g id="text_11">
      <text style="font-size: 10px; font-family: 'DejaVu Sans', 'Bitstream Vera Sans', 'Computer Modern Sans Serif', 'Lucida Grande', 'Verdana', 'Geneva', 'Lucid', 'Arial', 'Helvetica', 'Avant Garde', sans-serif; text-anchor: end; fill: #0b0b0b" x="43.87" y="159.107717" transform="rotate(-0 43.87 159.107717)">40</text>
     </g>
    </g>
    <g id="ytick_4">
     <g id="line2d_14">
      <path d="M 47.37 129.792747 
L 507.6 129.792747 
" clip-path="url(#pa4f0596d1d)" style="fill: none; stroke: #e6e5e0; stroke-width: 0.6; stroke-linecap: square"/>
     </g>
     <g id="line2d_15"/>
     <g id="text_12">
      <text style="font-size: 10px; font-family: 'DejaVu Sans', 'Bitstream Vera Sans', 'Computer Modern Sans Serif', 'Lucida Grande', 'Verdana', 'Geneva', 'Lucid', 'Arial', 'Helvetica', 'Avant Garde', sans-serif; text-anchor: end; fill: #0b0b0b" x="43.87" y="133.591966" transform="rotate(-0 43.87 133.591966)">60</text>
     </g>
    </g>
    <g id="ytick_5">
     <g id="line2d_16">
      <path d="M 47.37 104.276996 
L 507.6 104.276996 
" clip-path="url(#pa4f0596d1d)" style="fill: none; stroke: #e6e5e0; stroke-width: 0.6; stroke-linecap: square"/>
     </g>
     <g id="line2d_17"/>
     <g id="text_13">
      <text style="font-size: 10px; font-family: 'DejaVu Sans', 'Bitstream Vera Sans', 'Computer Modern Sans Serif', 'Lucida Grande', 'Verdana', 'Geneva', 'Lucid', 'Arial', 'Helvetica', 'Avant Garde', sans-serif; text-anchor: end; fill: #0b0b0b" x="43.87" y="108.076215" transform="rotate(-0 43.87 108.076215)">80</text>
     </g>
    </g>
    <g id="ytick_6">
     <g id="line2d_18">
      <path d="M 47.37 78.761245 
L 507.6 78.761245 
" clip-path="url(#pa4f0596d1d)" style="fill: none; stroke: #e6e5e0; stroke-width: 0.6; stroke-linecap: square"/>
     </g>
     <g id="line2d_19"/>
     <g id="text_14">
      <text style="font-size: 10px; font-family: 'DejaVu Sans', 'Bitstream Vera Sans', 'Computer Modern Sans Serif', 'Lucida Grande', 'Verdana', 'Geneva', 'Lucid', 'Arial', 'Helvetica', 'Avant Garde', sans-serif; text-anchor: end; fill: #0b0b0b" x="43.87" y="82.560464" transform="rotate(-0 43.87 82.560464)">100</text>
     </g>
    </g>
    <g id="text_15">
     <text style="font-size: 10px; font-family: 'DejaVu Sans', 'Bitstream Vera Sans', 'Computer Modern Sans Serif', 'Lucida Grande', 'Verdana', 'Geneva', 'Lucid', 'Arial', 'Helvetica', 'Avant Garde', sans-serif; text-anchor: middle; fill: #52514e" x="18.702812" y="136.682" transform="rotate(-90 18.702812 136.682)">Studies</text>
    </g>
   </g>
   <g id="patch_3">
    <path d="M 68.289545 206.34 
L 72.951283 206.34 
L 72.951283 205.064212 
L 68.289545 205.064212 
z
" clip-path="url(#pa4f0596d1d)" style="fill: #2a78d6"/>
   </g>
   <g id="patch_4">
    <path d="M 74.116717 206.34 
L 78.778454 206.34 
L 78.778454 206.34 
L 74.116717 206.34 
z
" clip-path="url(#pa4f0596d1d)" style="fill: #2a78d6"/>
   </g>
   <g id="patch_5">
    <path d="M 79.943888 206.34 
L 84.605625 206.34 
L 84.605625 206.34 
L 79.943888 206.34 
z
" clip-path="url(#pa4f0596d1d)" style="fill: #2a78d6"/>
   </g>
   <g id="patch_6">
    <path d="M 85.77106 206.34 
L 90.432797 206.34 
L 90.432797 206.34 
L 85.77106 206.34 
z
" clip-path="url(#pa4f0596d1d)" style="fill: #2a78d6"/>
   </g>
   <g id="patch_7">
    <path d="M 91.598231 206.34 
L 96.259968 206.34 
L 96.259968 206.34 
L 91.598231 206.34 
z
" clip-path="url(#pa4f0596d1d)" style="fill: #2a78d6"/>
   </g>
   <g id="patch_8">
    <path d="M 97.425403 206.34 
L 102.08714 206.34 
L 102.08714 206.34 
L 97.425403 206.34 
z
" clip-path="url(#pa4f0596d1d)" style="fill: #2a78d6"/>
   </g>
   <g id="patch_9">
    <path d="M 103.252574 206.34 
L 107.914311 206.34 
L 107.914311 206.34 
L 103.252574 206.34 
z
" clip-path="url(#pa4f0596d1d)" style="fill: #2a78d6"/>
   </g>
   <g id="patch_10">
    <path d="M 109.079746 206.34 
L 113.741483 206.34 
L 113.741483 206.34 
L 109.079746 206.34 
z
" clip-path="url(#pa4f0596d1d)" style="fill: #2a78d6"/>
   </g>
   <g id="patch_11">
    <path d="M 114.906917 206.34 
L 119.568654 206.34 
L 119.568654 206.34 
L 114.906917 206.34 
z
" clip-path="url(#pa4f0596d1d)" style="fill: #2a78d6"/>
   </g>
   <g id="patch_12">
    <path d="M 120.734088 206.34 
L 125.395826 206.34 
L 125.395826 206.34 
L 120.734088 206.34 
z
" clip-path="url(#pa4f0596d1d)" style="fill: #2a78d6"/>
   </g>
   <g id="patch_13">
    <path d="M 126.56126 206.34 
L 131.222997 206.34 
L 131.222997 206.34 
L 126.56126 206.34 
z
" clip-path="url(#pa4f0596d1d)" style="fill: #2a78d6"/>
   </g>
   <g id="patch_14">
    <path d="M 132.388431 206.34 
L 137.050168 206.34 
L 137.050168 206.34 
L 132.388431 206.34 
z
" clip-path="url(#pa4f0596d1d)" style="fill: #2a78d6"/>
   </g>
   <g id="patch_15">
    <path d="M 138.215603 206.34 
L 142.87734 206.34 
L 142.87734 206.34 
L 138.215603 206.34 
z
" clip-path="url(#pa4f0596d1d)" style="fill: #2a78d6"/>
   </g>
   <g id="patch_16">
    <path d="M 144.042774 206.34 
L 148.704511 206.34 
L 148.704511 206.34 
L 144.042774 206.34 
z
" clip-path="url(#pa4f0596d1d)" style="fill: #2a78d6"/>
   </g>
   <g id="patch_17">
    <path d="M 149.869946 206.34 
L 154.531683 206.34 
L 154.531683 206.34 
L 149.869946 206.34 
z
" clip-path="url(#pa4f0596d1d)" style="fill: #2a78d6"/>
   </g>
   <g id="patch_18">
    <path d="M 155.697117 206.34 
L 160.358854 206.34 
L 160.358854 206.34 
L 155.697117 206.34 
z
" clip-path="url(#pa4f0596d1d)" style="fill: #2a78d6"/>
   </g>
   <g id="patch_19">
    <path d="M 161.524288 206.34 
L 166.186026 206.34 
L 166.186026 206.34 
L 161.524288 206.34 
z
" clip-path="url(#pa4f0596d1d)" style="fill: #2a78d6"/>
   </g>
   <g id="patch_20">
    <path d="M 167.35146 206.34 
L 172.013197 206.34 
L 172.013197 206.34 
L 167.35146 206.34 
z
" clip-path="url(#pa4f0596d1d)" style="fill: #2a78d6"/>
   </g>
   <g id="patch_21">
    <path d="M 173.178631 206.34 
L 177.840368 206.34 
L 177.840368 205.064212 
L 173.178631 205.064212 
z
" clip-path="url(#pa4f0596d1d)" style="fill: #2a78d6"/>
   </g>
   <g id="patch_22">
    <path d="M 179.005803 206.34 
L 183.66754 206.34 
L 183.66754 206.34 
L 179.005803 206.34 
z
" clip-path="url(#pa4f0596d1d)" style="fill: #2a78d6"/>
   </g>
   <g id="patch_23">
    <path d="M 184.832974 206.34 
L 189.494711 206.34 
L 189.494711 206.34 
L 184.832974 206.34 
z
" clip-path="url(#pa4f0596d1d)" style="fill: #2a78d6"/>
   </g>
   <g id="patch_24">
    <path d="M 190.660146 206.34 
L 195.321883 206.34 
L 195.321883 206.34 
L 190.660146 206.34 
z
" clip-path="url(#pa4f0596d1d)" style="fill: #2a78d6"/>
   </g>
   <g id="patch_25">
    <path d="M 196.487317 206.34 
L 201.149054 206.34 
L 201.149054 206.34 
L 196.487317 206.34 
z
" clip-path="url(#pa4f0596d1d)" style="fill: #2a78d6"/>
   </g>
   <g id="patch_26">
    <path d="M 202.314488 206.34 
L 206.976226 206.34 
L 206.976226 203.788425 
L 202.314488 203.788425 
z
" clip-path="url(#pa4f0596d1d)" style="fill: #2a78d6"/>
   </g>
   <g id="patch_27">
    <path d="M 208.14166 206.34 
L 212.803397 206.34 
L 212.803397 206.34 
L 208.14166 206.34 
z
" clip-path="url(#pa4f0596d1d)" style="fill: #2a78d6"/>
   </g>
   <g id="patch_28">
    <path d="M 213.968831 206.34 
L 218.630568 206.34 
L 218.630568 206.34 
L 213.968831 206.34 
z
" clip-path="url(#pa4f0596d1d)" style="fill: #2a78d6"/>
   </g>
   <g id="patch_29">
    <path d="M 219.796003 206.34 
L 224.45774 206.34 
L 224.45774 206.34 
L 219.796003 206.34 
z
" clip-path="url(#pa4f0596d1d)" style="fill: #2a78d6"/>
   </g>
   <g id="patch_30">
    <path d="M 225.623174 206.34 
L 230.284911 206.34 
L 230.284911 206.34 
L 225.623174 206.34 
z
" clip-path="url(#pa4f0596d1d)" style="fill: #2a78d6"/>
   </g>
   <g id="patch_31">
    <path d="M 231.450346 206.34 
L 236.112083 206.34 
L 236.112083 206.34 
L 231.450346 206.34 
z
" clip-path="url(#pa4f0596d1d)" style="fill: #2a78d6"/>
   </g>
   <g id="patch_32">
    <path d="M 237.277517 206.34 
L 241.939254 206.34 
L 241.939254 206.34 
L 237.277517 206.34 
z
" clip-path="url(#pa4f0596d1d)" style="fill: #2a78d6"/>
   </g>
   <g id="patch_33">
    <path d="M 243.104689 206.34 
L 247.766426 206.34 
L 247.766426 203.788425 
L 243.104689 203.788425 
z
" clip-path="url(#pa4f0596d1d)" style="fill: #2a78d6"/>
   </g>
   <g id="patch_34">
    <path d="M 248.93186 206.34 
L 253.593597 206.34 
L 253.593597 206.34 
L 248.93186 206.34 
z
" clip-path="url(#pa4f0596d1d)" style="fill: #2a78d6"/>
   </g>
   <g id="patch_35">
    <path d="M 254.759031 206.34 
L 259.420769 206.34 
L 259.420769 203.788425 
L 254.759031 203.788425 
z
" clip-path="url(#pa4f0596d1d)" style="fill: #2a78d6"/>
   </g>
   <g id="patch_36">
    <path d="M 260.586203 206.34 
L 265.24794 206.34 
L 265.24794 206.34 
L 260.586203 206.34 
z
" clip-path="url(#pa4f0596d1d)" style="fill: #2a78d6"/>
   </g>
   <g id="patch_37">
    <path d="M 266.413374 206.34 
L 271.075111 206.34 
L 271.075111 203.788425 
L 266.413374 203.788425 
z
" clip-path="url(#pa4f0596d1d)" style="fill: #2a78d6"/>
   </g>
   <g id="patch_38">
    <path d="M 272.240546 206.34 
L 276.902283 206.34 
L 276.902283 206.34 
L 272.240546 206.34 
z
" clip-path="url(#pa4f0596d1d)" style="fill: #2a78d6"/>
   </g>
   <g id="patch_39">
    <path d="M 278.067717 206.34 
L 282.729454 206.34 
L 282.729454 203.788425 
L 278.067717 203.788425 
z
" clip-path="url(#pa4f0596d1d)" style="fill: #2a78d6"/>
   </g>
   <g id="patch_40">
    <path d="M 283.894889 206.34 
L 288.556626 206.34 
L 288.556626 203.788425 
L 283.894889 203.788425 
z
" clip-path="url(#pa4f0596d1d)" style="fill: #2a78d6"/>
   </g>
   <g id="patch_41">
    <path d="M 289.72206 206.34 
L 294.383797 206.34 
L 294.383797 205.064212 
L 289.72206 205.064212 
z
" clip-path="url(#pa4f0596d1d)" style="fill: #2a78d6"/>
   </g>
   <g id="patch_42">
    <path d="M 295.549231 206.34 
L 300.210969 206.34 
L 300.210969 201.23685 
L 295.549231 201.23685 
z
" clip-path="url(#pa4f0596d1d)" style="fill: #2a78d6"/>
   </g>
   <g id="patch_43">
    <path d="M 301.376403 206.34 
L 306.03814 206.34 
L 306.03814 202.512637 
L 301.376403 202.512637 
z
" clip-path="url(#pa4f0596d1d)" style="fill: #2a78d6"/>
   </g>
   <g id="patch_44">
    <path d="M 307.203574 206.34 
L 311.865311 206.34 
L 311.865311 205.064212 
L 307.203574 205.064212 
z
" clip-path="url(#pa4f0596d1d)" style="fill: #2a78d6"/>
   </g>
   <g id="patch_45">
    <path d="M 313.030746 206.34 
L 317.692483 206.34 
L 317.692483 203.788425 
L 313.030746 203.788425 
z
" clip-path="url(#pa4f0596d1d)" style="fill: #2a78d6"/>
   </g>
   <g id="patch_46">
    <path d="M 318.857917 206.34 
L 323.519654 206.34 
L 323.519654 205.064212 
L 318.857917 205.064212 
z
" clip-path="url(#pa4f0596d1d)" style="fill: #2a78d6"/>
   </g>
   <g id="patch_47">
    <path d="M 324.685089 206.34 
L 329.346826 206.34 
L 329.346826 201.23685 
L 324.685089 201.23685 
z
" clip-path="url(#pa4f0596d1d)" style="fill: #2a78d6"/>
   </g>
   <g id="patch_48">
    <path d="M 330.51226 206.34 
L 335.173997 206.34 
L 335.173997 198.685275 
L 330.51226 198.685275 
z
" clip-path="url(#pa4f0596d1d)" style="fill: #2a78d6"/>
   </g>
   <g id="patch_49">
    <path d="M 336.339432 206.34 
L 341.001169 206.34 
L 341.001169 202.512637 
L 336.339432 202.512637 
z
" clip-path="url(#pa4f0596d1d)" style="fill: #2a78d6"/>
   </g>
   <g id="patch_50">
    <path d="M 342.166603 206.34 
L 346.82834 206.34 
L 346.82834 199.961062 
L 342.166603 199.961062 
z
" clip-path="url(#pa4f0596d1d)" style="fill: #2a78d6"/>
   </g>
   <g id="patch_51">
    <path d="M 347.993774 206.34 
L 352.655512 206.34 
L 352.655512 185.927399 
L 347.993774 185.927399 
z
" clip-path="url(#pa4f0596d1d)" style="fill: #2a78d6"/>
   </g>
   <g id="patch_52">
    <path d="M 353.820946 206.34 
L 358.482683 206.34 
L 358.482683 185.927399 
L 353.820946 185.927399 
z
" clip-path="url(#pa4f0596d1d)" style="fill: #2a78d6"/>
   </g>
   <g id="patch_53">
    <path d="M 359.648117 206.34 
L 364.309854 206.34 
L 364.309854 198.685275 
L 359.648117 198.685275 
z
" clip-path="url(#pa4f0596d1d)" style="fill: #2a78d6"/>
   </g>
   <g id="patch_54">
    <path d="M 365.475289 206.34 
L 370.137026 206.34 
L 370.137026 180.824249 
L 365.475289 180.824249 
z
" clip-path="url(#pa4f0596d1d)" style="fill: #2a78d6"/>
   </g>
   <g id="patch_55">
    <path d="M 371.30246 206.34 
L 375.964197 206.34 
L 375.964197 178.272674 
L 371.30246 178.272674 
z
" clip-path="url(#pa4f0596d1d)" style="fill: #2a78d6"/>
   </g>
   <g id="patch_56">
    <path d="M 377.129632 206.34 
L 381.791369 206.34 
L 381.791369 161.687436 
L 377.129632 161.687436 
z
" clip-path="url(#pa4f0596d1d)" style="fill: #2a78d6"/>
   </g>
   <g id="patch_57">
    <path d="M 382.956803 206.34 
L 387.61854 206.34 
L 387.61854 189.754762 
L 382.956803 189.754762 
z
" clip-path="url(#pa4f0596d1d)" style="fill: #2a78d6"/>
   </g>
   <g id="patch_58">
    <path d="M 388.783974 206.34 
L 393.445712 206.34 
L 393.445712 173.169524 
L 388.783974 173.169524 
z
" clip-path="url(#pa4f0596d1d)" style="fill: #2a78d6"/>
   </g>
   <g id="patch_59">
    <path d="M 394.611146 206.34 
L 399.272883 206.34 
L 399.272883 155.308498 
L 394.611146 155.308498 
z
" clip-path="url(#pa4f0596d1d)" style="fill: #2a78d6"/>
   </g>
   <g id="patch_60">
    <path d="M 400.438317 206.34 
L 405.100054 206.34 
L 405.100054 142.550623 
L 400.438317 142.550623 
z
" clip-path="url(#pa4f0596d1d)" style="fill: #2a78d6"/>
   </g>
   <g id="patch_61">
    <path d="M 406.265489 206.34 
L 410.927226 206.34 
L 410.927226 145.102198 
L 406.265489 145.102198 
z
" clip-path="url(#pa4f0596d1d)" style="fill: #2a78d6"/>
   </g>
   <g id="patch_62">
    <path d="M 412.09266 206.34 
L 416.754397 206.34 
L 416.754397 134.895897 
L 412.09266 134.895897 
z
" clip-path="url(#pa4f0596d1d)" style="fill: #2a78d6"/>
   </g>
   <g id="patch_63">
    <path d="M 417.919832 206.34 
L 422.581569 206.34 
L 422.581569 145.102198 
L 417.919832 145.102198 
z
" clip-path="url(#pa4f0596d1d)" style="fill: #2a78d6"/>
   </g>
   <g id="patch_64">
    <path d="M 423.747003 206.34 
L 428.40874 206.34 
L 428.40874 141.274835 
L 423.747003 141.274835 
z
" clip-path="url(#pa4f0596d1d)" style="fill: #2a78d6"/>
   </g>
   <g id="patch_65">
    <path d="M 429.574174 206.34 
L 434.235912 206.34 
L 434.235912 150.205348 
L 429.574174 150.205348 
z
" clip-path="url(#pa4f0596d1d)" style="fill: #2a78d6"/>
   </g>
   <g id="patch_66">
    <path d="M 435.401346 206.34 
L 440.063083 206.34 
L 440.063083 120.862234 
L 435.401346 120.862234 
z
" clip-path="url(#pa4f0596d1d)" style="fill: #2a78d6"/>
   </g>
   <g id="patch_67">
    <path d="M 441.228517 206.34 
L 445.890254 206.34 
L 445.890254 127.241172 
L 441.228517 127.241172 
z
" clip-path="url(#pa4f0596d1d)" style="fill: #2a78d6"/>
   </g>
   <g id="patch_68">
    <path d="M 447.055689 206.34 
L 451.717426 206.34 
L 451.717426 124.689597 
L 447.055689 124.689597 
z
" clip-path="url(#pa4f0596d1d)" style="fill: #2a78d6"/>
   </g>
   <g id="patch_69">
    <path d="M 452.88286 206.34 
L 457.544597 206.34 
L 457.544597 118.310659 
L 452.88286 118.310659 
z
" clip-path="url(#pa4f0596d1d)" style="fill: #2a78d6"/>
   </g>
   <g id="patch_70">
    <path d="M 458.710032 206.34 
L 463.371769 206.34 
L 463.371769 125.965385 
L 458.710032 125.965385 
z
" clip-path="url(#pa4f0596d1d)" style="fill: #2a78d6"/>
   </g>
   <g id="patch_71">
    <path d="M 464.537203 206.34 
L 469.19894 206.34 
L 469.19894 129.792747 
L 464.537203 129.792747 
z
" clip-path="url(#pa4f0596d1d)" style="fill: #2a78d6"/>
   </g>
   <g id="patch_72">
    <path d="M 470.364375 206.34 
L 475.026112 206.34 
L 475.026112 133.62011 
L 470.364375 133.62011 
z
" clip-path="url(#pa4f0596d1d)" style="fill: #2a78d6"/>
   </g>
   <g id="patch_73">
    <path d="M 476.191546 206.34 
L 480.853283 206.34 
L 480.853283 73.658095 
L 476.191546 73.658095 
z
" clip-path="url(#pa4f0596d1d)" style="fill: #2a78d6"/>
   </g>
   <g id="patch_74">
    <path d="M 482.018717 206.34 
L 486.680455 206.34 
L 486.680455 109.380147 
L 482.018717 109.380147 
z
" clip-path="url(#pa4f0596d1d)" style="fill: #2a78d6"/>
   </g>
   <g id="patch_75">
    <path d="M 47.37 206.34 
L 47.37 67.024 
" style="fill: none; stroke: #c8c7c1; stroke-width: 0.8; stroke-linejoin: miter; stroke-linecap: square"/>
   </g>
   <g id="patch_76">
    <path d="M 47.37 206.34 
L 507.6 206.34 
" style="fill: none; stroke: #c8c7c1; stroke-width: 0.8; stroke-linejoin: miter; stroke-linecap: square"/>
   </g>
   <g id="text_16">
    <text style="font-size: 9px; font-family: 'DejaVu Sans', 'Bitstream Vera Sans', 'Computer Modern Sans Serif', 'Lucida Grande', 'Verdana', 'Geneva', 'Lucid', 'Arial', 'Helvetica', 'Avant Garde', sans-serif; text-anchor: end; fill: #0b0b0b" x="472.522415" y="69.658095" transform="rotate(-0 472.522415 69.658095)">2025: 104</text>
   </g>
  </g>
  <g id="text_17">
   <text style="font-weight: 700; font-size: 12px; font-family: 'DejaVu Sans', 'Bitstream Vera Sans', 'Computer Modern Sans Serif', 'Lucida Grande', 'Verdana', 'Geneva', 'Lucid', 'Arial', 'Helvetica', 'Avant Garde', sans-serif; text-anchor: start; fill: #0b0b0b" x="5.184" y="24.958125" transform="rotate(-0 5.184 24.958125)">When the included studies were published</text>
  </g>
  <g id="text_18">
   <text style="font-size: 8.5px; font-family: 'DejaVu Sans', 'Bitstream Vera Sans', 'Computer Modern Sans Serif', 'Lucida Grande', 'Verdana', 'Geneva', 'Lucid', 'Arial', 'Helvetica', 'Avant Garde', sans-serif; text-anchor: start; fill: #52514e" x="5.184" y="42.458672" transform="rotate(-0 5.184 42.458672)">985 of 1,157 (85%) were published in 2010 or later; 2026 is a partial year</text>
  </g>
 </g>
 <defs>
  <clipPath id="pa4f0596d1d">
   <rect x="47.37" y="67.024" width="460.23" height="139.316"/>
  </clipPath>
 </defs>
</svg>
